<?xml version="1.0" encoding="UTF-8" standalone="no"?>
<!-- Created with Inkscape (http://www.inkscape.org/) -->

<svg
   xmlns:dc="http://purl.org/dc/elements/1.1/"
   xmlns:cc="http://creativecommons.org/ns#"
   xmlns:rdf="http://www.w3.org/1999/02/22-rdf-syntax-ns#"
   xmlns:svg="http://www.w3.org/2000/svg"
   xmlns="http://www.w3.org/2000/svg"
   xmlns:sodipodi="http://sodipodi.sourceforge.net/DTD/sodipodi-0.dtd"
   xmlns:inkscape="http://www.inkscape.org/namespaces/inkscape"
   width="1699.7988"
   height="512"
   id="svg8131"
   version="1.1"
   inkscape:version="0.91 r13725"
   sodipodi:docname="logo-grey.svg">
  <defs
     id="defs8133" />
  <sodipodi:namedview
     id="base"
     pagecolor="#ffffff"
     bordercolor="#666666"
     borderopacity="1.0"
     inkscape:pageopacity="0.0"
     inkscape:pageshadow="2"
     inkscape:zoom="0.35355339"
     inkscape:cx="179.81752"
     inkscape:cy="479.24561"
     inkscape:document-units="px"
     inkscape:current-layer="layer19"
     showgrid="false"
     fit-margin-top="0"
     fit-margin-left="0"
     fit-margin-right="0"
     fit-margin-bottom="0"
     inkscape:window-width="1680"
     inkscape:window-height="1026"
     inkscape:window-x="0"
     inkscape:window-y="341"
     inkscape:window-maximized="1" />
  <metadata
     id="metadata8136">
    <rdf:RDF>
      <cc:Work
         rdf:about="">
        <dc:format>image/svg+xml</dc:format>
        <dc:type
           rdf:resource="http://purl.org/dc/dcmitype/StillImage" />
      </cc:Work>
    </rdf:RDF>
  </metadata>
  <g
     inkscape:label="Layer 1"
     inkscape:groupmode="layer"
     id="layer1"
     transform="translate(-317.31985,-319.93842)" />
  <g
     inkscape:groupmode="layer"
     id="layer19"
     inkscape:label="Hide layer"
     style="display:inline"
     transform="translate(0,415.71875)">
    <path
       id="path3060"
       d="m 1472.5286,-221.69514 c 10.8589,0 19.9044,1.23372 27.1472,3.69584 7.2481,2.47275 13.0444,6.01438 17.405,10.61423 4.3605,4.6105 7.4395,10.22073 9.2582,16.79347 1.8134,6.58338 2.7121,13.89529 2.7121,21.96764 l 0,76.527798 c -5.2699,1.153953 -12.5925,2.515298 -21.9677,4.0734 -9.3805,1.568737 -20.7339,2.345129 -34.0602,2.345129 -8.4021,0 -16.0118,-0.739168 -22.8398,-2.222821 -6.8333,-1.473018 -12.7094,-3.903231 -17.6496,-7.280005 -4.9349,-3.376774 -8.7211,-7.769241 -11.3587,-13.209301 -2.6323,-5.42943 -3.9511,-12.08725 -3.9511,-19.99475 0,-7.57249 1.5209,-13.98038 4.5733,-19.25559 3.0364,-5.26458 7.1151,-9.46029 12.2149,-12.58712 5.0997,-3.11621 10.9492,-5.39221 17.5273,-6.78014 6.578,-1.40389 13.4167,-2.10051 20.4893,-2.10051 4.77,0 9.0083,0.19675 12.7147,0.61154 3.7012,0.41478 6.7057,0.94656 9.003,1.60064 l 0,-3.4459 c 0,-6.25368 -1.8825,-11.26832 -5.6634,-15.05988 -3.7916,-3.79156 -10.3643,-5.67936 -19.7555,-5.67936 -6.259,0 -12.4276,0.45732 -18.5058,1.36134 -6.0941,0.90402 -11.364,2.19092 -15.8043,3.82347 l -4.685,-29.61989 c 2.1271,-0.65409 4.8073,-1.35071 8.0245,-2.10051 3.2066,-0.73917 6.7004,-1.39326 10.4866,-1.97289 3.781,-0.57964 7.7799,-1.06887 11.9809,-1.47302 4.1851,-0.41478 8.418,-0.63281 12.7041,-0.63281 z m 2.962,107.63134 c 3.6161,0 7.0673,-0.0851 10.3643,-0.2393 3.2864,-0.17549 5.9293,-0.42542 7.8916,-0.74981 l 0,-27.89693 c -1.4677,-0.33502 -3.6905,-0.65409 -6.6578,-0.99974 -2.9673,-0.31375 -5.6794,-0.48923 -8.1468,-0.48923 -3.4513,0 -6.711,0.20739 -9.7475,0.62217 -3.0577,0.40415 -5.7272,1.1965 -8.0298,2.34513 -2.3026,1.14332 -4.1159,2.71206 -5.4294,4.68494 -1.3188,1.98353 -1.9729,4.44565 -1.9729,7.40764 0,5.76444 1.9303,9.75276 5.8017,11.97558 3.866,2.22814 9.1784,3.33955 15.9266,3.33955 z"
       inkscape:connector-curvature="0"
       style="fill:#d0d0d0;fill-opacity:1" />
    <path
       id="path3062"
       d="m 1593.4863,-255.76067 c 0,6.75354 -2.175,12.06066 -6.5409,15.92135 -4.3552,3.86601 -9.5028,5.80699 -15.4214,5.80699 -5.9293,0 -11.0716,-1.94098 -15.4322,-5.80699 -4.3605,-3.86601 -6.5461,-9.17312 -6.5461,-15.92135 0,-6.74823 2.1856,-12.05003 6.5461,-15.92136 4.3606,-3.86601 9.5082,-5.80699 15.4322,-5.80699 5.9186,0 11.0715,1.94098 15.4214,5.80699 4.3659,3.87133 6.5409,9.16781 6.5409,15.92136 z m -3.4566,167.370983 -36.7829,0 0,-129.848913 36.7829,0 0,129.848913 z"
       inkscape:connector-curvature="0"
       style="fill:#d0d0d0;fill-opacity:1" />
    <path
       id="path3064"
       d="m 1693.6143,-185.65672 c -3.2917,-0.81894 -7.163,-1.69105 -11.6034,-2.58443 -4.4403,-0.90402 -9.2156,-1.37198 -14.3154,-1.37198 -2.3079,0 -5.0518,0.21803 -8.2691,0.62217 -3.2119,0.41479 -5.6368,0.86148 -7.2853,1.36135 l 0,99.239923 -36.7776,0 0,-122.941153 c 6.5781,-2.29727 14.358,-4.48818 23.329,-6.53552 8.9657,-2.05797 18.9631,-3.09493 29.9921,-3.09493 1.9729,0 4.3606,0.12231 7.1577,0.37224 2.8025,0.24994 5.5943,0.57964 8.3968,0.9891 2.7918,0.41479 5.5889,0.90402 8.402,1.47302 2.7972,0.59027 5.1742,1.2869 7.1577,2.10583 l -6.1845,30.36438 z"
       inkscape:connector-curvature="0"
       style="fill:#d0d0d0;fill-opacity:1" />
    <path
       id="path3068"
       d="m 631.72794,-86.911352 c -3.45122,0 -7.20555,-0.08508 -11.23109,-0.249934 -4.03086,-0.16485 -8.06704,-0.404149 -12.09258,-0.739168 -4.03617,-0.324383 -8.02449,-0.739168 -11.97026,-1.223083 -3.95641,-0.510505 -7.57248,-1.164588 -10.86949,-1.983522 l 0,-165.887331 c 3.29701,-0.81894 6.91308,-1.47302 10.86949,-1.97289 3.94577,-0.49987 7.93409,-0.90402 11.97026,-1.23372 4.02554,-0.32438 8.01386,-0.569 11.97027,-0.73917 3.95109,-0.16485 7.65225,-0.24993 11.10879,-0.24993 9.86975,0 19.12796,0.73917 27.76399,2.22282 8.64135,1.48365 16.12875,3.98832 22.46751,7.52994 6.33344,3.54162 11.31086,8.18402 14.93757,13.93783 3.62139,5.77508 5.42943,12.83706 5.42943,21.23911 0,9.38052 -2.22282,17.07531 -6.66847,23.07905 -4.44032,6.02502 -10.3643,10.49193 -17.77725,13.45924 10.04524,2.96199 18.03251,7.65225 23.95117,14.06546 5.92929,6.42916 8.88596,15.46403 8.88596,27.15777 0,17.11785 -6.2909,29.99745 -18.88334,38.628162 -12.59776,8.646668 -32.54997,12.959366 -59.86196,12.959366 z m -22.46751,-100.468328 25.17425,0 c 5.92929,0 11.51825,-0.40415 16.78815,-1.22308 5.26457,-0.8402 9.82721,-2.31854 13.70385,-4.45628 3.86069,-2.13773 6.91308,-4.93487 9.13058,-8.40205 2.22282,-3.43527 3.32892,-7.80114 3.32892,-13.07636 0,-4.94551 -1.14332,-9.08804 -3.45122,-12.46481 -2.30791,-3.36614 -5.47197,-6.08883 -9.50283,-8.15212 -4.03618,-2.04733 -8.76366,-3.58416 -14.19309,-4.56795 -5.42411,-0.97846 -11.19387,-1.47302 -17.27738,-1.47302 -6.08883,0 -10.85885,0.0957 -14.31539,0.24994 -3.45122,0.16485 -6.57806,0.41478 -9.38052,0.73917 l 0,52.82656 z m 0,19.25559 0,60.23952 c 1.80804,0.15421 3.94578,0.32438 6.42385,0.48923 2.13242,0.15422 4.64772,0.28184 7.52994,0.36161 2.8769,0.0851 6.20582,0.12231 9.99206,0.12231 7.07261,0 13.78362,-0.45733 20.11706,-1.35071 6.33345,-0.90402 11.88518,-2.5153 16.66584,-4.81789 4.76471,-2.3079 8.59349,-5.51451 11.47571,-9.63045 2.87691,-4.11062 4.32334,-9.29543 4.32334,-15.54911 0,-5.5996 -1.07419,-10.32176 -3.21192,-14.19841 -2.14306,-3.866 -5.22736,-6.96094 -9.25821,-9.26352 -4.03618,-2.29727 -8.84343,-3.94578 -14.44834,-4.93488 -5.58896,-0.97847 -11.84264,-1.47302 -18.75572,-1.47302 l -30.85361,0 z"
       inkscape:connector-curvature="0"
       style="fill:#d0d0d0;fill-opacity:1" />
    <path
       id="path3070"
       d="m 778.46073,-219.48296 c 1.98352,0 4.23825,0.13295 6.79609,0.37225 2.5472,0.24993 5.0625,0.57963 7.52993,0.9891 2.46212,0.41478 4.72749,0.82957 6.79078,1.24435 2.04733,0.40415 3.57353,0.7764 4.56263,1.11141 l -3.95641,19.99476 c -1.81335,-0.65409 -4.80725,-1.4358 -9.00827,-2.34513 -4.20103,-0.90402 -9.59323,-1.36135 -16.17129,-1.36135 -4.2808,0 -8.51373,0.45733 -12.70944,1.36135 -4.20102,0.91465 -6.95562,1.51556 -8.27974,1.85058 l 0,107.881271 -22.95674,0 0,-122.941151 c 5.43474,-1.96225 12.17765,-3.82347 20.25,-5.54642 8.06704,-1.7389 17.11785,-2.61102 27.15246,-2.61102 z"
       inkscape:connector-curvature="0"
       style="fill:#d0d0d0;fill-opacity:1" />
    <path
       id="path3072"
       d="m 829.46862,-235.282 c -4.11594,0 -7.6097,-1.35071 -10.49725,-4.06277 -2.88222,-2.71205 -4.32333,-6.37598 -4.32333,-10.98648 0,-4.59985 1.44111,-8.2691 4.32333,-10.98648 2.88223,-2.72269 6.37599,-4.0734 10.49725,-4.0734 4.11062,0 7.60971,1.35071 10.49193,4.0734 2.8769,2.72269 4.32333,6.38663 4.32333,10.98648 0,4.6105 -1.44643,8.27975 -4.32333,10.98648 -2.88222,2.71206 -6.38131,4.06277 -10.49193,4.06277 z"
       inkscape:connector-curvature="0"
       style="fill:#d0d0d0;fill-opacity:1" />
    <rect
       id="rect3074"
       height="128.3759"
       width="22.951426"
       y="-216.76033"
       x="818.10992"
       style="fill:#d0d0d0;fill-opacity:1" />
    <path
       id="path3076"
       d="m 950.04869,-101.22675 c -1.97289,1.308172 -5.79635,2.999218 -11.47571,5.057189 -5.67405,2.057971 -12.30528,3.084297 -19.87245,3.084297 -7.74265,0 -15.01734,-1.233719 -21.85065,-3.695839 -6.83331,-2.472755 -12.79983,-6.306857 -17.89956,-11.475717 -5.09441,-5.19544 -9.13058,-11.64056 -12.09257,-19.38321 -2.96731,-7.74797 -4.44033,-16.95832 -4.44033,-27.65764 0,-9.38051 1.39857,-17.97932 4.20103,-25.7911 2.79182,-7.81178 6.87054,-14.56001 12.2202,-20.24469 5.34434,-5.67936 11.87986,-10.11437 19.62251,-13.33693 7.73201,-3.20129 16.45313,-4.81788 26.16867,-4.81788 10.694,0 20.02666,0.78702 28.01924,2.35576 7.97663,1.56874 14.68764,2.99921 20.11707,4.32333 l 0,114.539106 c 0,19.755456 -5.09973,34.065532 -15.30982,42.946181 -10.20477,8.891284 -25.6688,13.336926 -46.40804,13.336926 -8.06703,0 -15.67673,-0.654083 -22.82911,-1.983522 -7.16302,-1.308167 -13.37415,-2.876905 -18.63873,-4.684941 l 4.19571,-19.994755 c 4.60517,1.818672 10.24731,3.408681 16.91045,4.817885 6.66847,1.393252 13.61877,2.100513 20.86687,2.100513 13.66131,0 23.48852,-2.72269 29.49758,-8.152117 6.00906,-5.424109 9.00828,-14.070776 9.00828,-25.913414 l 0,-5.429432 z m -0.24462,-95.29415 c -2.3079,-0.64344 -5.3922,-1.26562 -9.25821,-1.85057 -3.866,-0.569 -9.09335,-0.86148 -15.67142,-0.86148 -12.34782,0 -21.85065,4.03086 -28.50847,12.09789 -6.66847,8.06172 -10.0027,18.75572 -10.0027,32.08201 0,7.40763 0.95188,13.75171 2.845,19.00565 1.8878,5.27521 4.44032,9.63045 7.64693,13.08699 3.21724,3.45654 6.9184,6.01438 11.10879,7.64693 4.20102,1.66446 8.51904,2.4834 12.96468,2.4834 6.08351,0 11.67779,-0.86148 16.78815,-2.59507 5.09973,-1.72295 9.13058,-3.73838 12.09257,-6.04628 l 0,-75.04947 z"
       inkscape:connector-curvature="0"
       style="fill:#d0d0d0;fill-opacity:1" />
    <path
       id="path3078"
       d="m 1001.6894,-88.389687 0,-173.045033 22.9621,-3.95641 0,51.0983 c 4.2808,-1.64318 8.8487,-2.91945 13.7038,-3.8341 4.8551,-0.89338 9.6624,-1.36134 14.4377,-1.36134 10.2101,0 18.6813,1.44111 25.4295,4.32865 6.7482,2.8769 12.1351,6.90776 16.1713,12.09789 4.0309,5.18481 6.8705,11.39594 8.5137,18.63341 1.6485,7.23746 2.4675,15.22473 2.4675,23.94053 l 0,72.092785 -22.9568,0 0,-67.147275 c 0,-7.90219 -0.5318,-14.65573 -1.6006,-20.24469 -1.0742,-5.58896 -2.8344,-10.12501 -5.3071,-13.57623 -2.4781,-3.45654 -5.7645,-5.9612 -9.8751,-7.52994 -4.116,-1.56874 -9.2263,-2.34513 -15.3098,-2.34513 -2.4675,0 -5.0147,0.16485 -7.647,0.49987 -2.6322,0.32438 -5.1475,0.69663 -7.5299,1.10078 -2.3877,0.42542 -4.5254,0.87211 -6.4185,1.36134 -1.8985,0.49987 -3.2492,0.90402 -4.0787,1.23372 l 0,106.647555 -22.9621,0 z"
       inkscape:connector-curvature="0"
       style="fill:#d0d0d0;fill-opacity:1" />
    <path
       id="path3080"
       d="m 1154.3568,-216.76027 48.6255,0 0,19.25559 -48.6255,0 0,59.25573 c 0,6.4079 0.4892,11.72565 1.4783,15.92136 0.9891,4.19571 2.4675,7.47676 4.4404,9.87507 1.9728,2.38767 4.4456,4.06276 7.4076,5.05718 2.962,0.9891 6.4185,1.47302 10.3643,1.47302 6.9131,0 12.4701,-0.77639 16.6658,-2.3345 4.2011,-1.56873 7.1152,-2.68014 8.7584,-3.34486 l 4.4456,19.016285 c -2.3079,1.143317 -6.3334,2.584428 -12.0926,4.312698 -5.7644,1.733588 -12.3425,2.595064 -19.7501,2.595064 -8.7264,0 -15.9214,-1.11141 -21.5954,-3.334231 -5.674,-2.212186 -10.2473,-5.557053 -13.6985,-10.002695 -3.4619,-4.445641 -5.8921,-9.906981 -7.2907,-16.410591 -1.4039,-6.50361 -2.0952,-14.02292 -2.0952,-22.57918 l 0,-123.43039 22.9568,-3.95641 0,48.63086 z"
       inkscape:connector-curvature="0"
       style="fill:#d0d0d0;fill-opacity:1" />
    <path
       id="path3082"
       d="m 1223.4982,-88.389687 0,-171.082783 114.5445,0 0,32.34258 -76.028,0 0,35.79912 67.6365,0 0,32.33195 -67.6365,0 0,70.603815 -38.5165,0 z"
       inkscape:connector-curvature="0"
       style="fill:#d0d0d0;fill-opacity:1" />
    <path
       id="path3084"
       d="m 1404.1211,-85.927567 c -10.694,-0.164851 -19.3779,-1.318803 -26.0358,-3.445905 -6.6684,-2.137737 -11.9383,-5.152903 -15.8043,-9.013593 -3.866,-3.860685 -6.4983,-8.556265 -7.8916,-14.065455 -1.3985,-5.51451 -2.0952,-11.72565 -2.0952,-18.64405 l 0,-128.3759 36.7776,-5.91866 0,126.88693 c 0,3.28105 0.25,6.25368 0.7392,8.88065 0.5052,2.6376 1.4464,4.86043 2.845,6.66846 1.3932,1.81867 3.4087,3.29169 6.0516,4.44564 2.6216,1.15396 6.1739,1.89844 10.6142,2.22283 l -5.2007,30.359053 z"
       inkscape:connector-curvature="0"
       style="fill:#d0d0d0;fill-opacity:1" />
    <path
       id="path3124"
       d="m 233.11195,-394.50205 c 0.0814,0 0.16578,0 0.24716,0 9.69655,0.0302 18.81438,2.5108 26.77779,6.82707 l 0.60886,0.35567 12.65042,7.36962 143.71507,83.70318 c 7.67706,4.79552 14.32026,11.49298 19.13689,19.9055 4.82265,8.42457 7.22795,17.55747 7.4721,26.61803 l -0.40691,106.87 -0.29841,74.77222 c -0.30744,9.05453 -2.77905,18.15729 -7.65897,26.52761 -4.87993,8.39141 -11.58643,15.03763 -19.3087,19.78192 l -0.0151,0.003 -145.48739,83.2601 -12.1561,6.9627 c -7.93628,4.2138 -16.98177,6.61307 -26.57584,6.61307 -0.0784,0 -0.15372,0 -0.22907,0 -9.69957,-0.0362 -18.79931,-2.50778 -26.7808,-6.82104 L 47.81959,-23.20296 c -7.67405,-4.78347 -14.32328,-11.48695 -19.12182,-19.88741 -4.82869,-8.42458 -7.237,-17.55747 -7.4721,-26.61803 l 0,-1.17854 0.67517,-179.26405 0,-1.17854 c 0.31649,-9.06056 2.80015,-18.17537 7.68912,-26.5487 4.87389,-8.38841 11.58341,-15.04065 19.30869,-19.78192 l 0.17483,-0.0965 121.52784,-69.56979 35.36814,-20.23404 0.56063,-0.32251 c 7.93025,-4.21983 16.97273,-6.6191 26.58186,-6.6191 m 0,-21.21666 0,0 c -12.7107,0 -25.34907,3.14678 -36.54968,9.10879 l -0.31347,0.16879 -0.31347,0.18085 -0.56064,0.3195 -35.31086,20.20089 -121.40126,69.49745 -0.0331,0.0181 -0.42801,0.23511 -0.41596,0.25017 c -10.91728,6.70952 -20.09539,16.11369 -26.54569,27.19675 -6.44427,11.03484 -10.10044,23.65813 -10.54955,36.46529 l -0.0121,0.37376 0,0.37375 0,1.17854 L 0.006,-70.96533 0.003,-69.81392 0,-69.48538 l 0.006,0.33457 c 0.3406,12.80415 3.8943,25.4606 10.27828,36.60394 6.34481,11.11019 15.44756,20.57465 26.31059,27.34746 l 0.26525,0.16277 0.2773,0.16276 156.98038,91.44956 0.29237,0.1688 0.2984,0.16276 c 11.25788,6.08559 23.98065,9.32882 36.7878,9.37403 l 0.31046,0 c 12.69865,0 25.32496,-3.14678 36.52256,-9.09371 l 0.30443,-0.15975 0.2984,-0.16578 12.15007,-6.96572 143.43174,-82.08156 0.31649,-0.0965 2.31788,-1.41967 c 10.91427,-6.70952 20.0954,-16.11068 26.53967,-27.18771 6.4503,-11.05895 10.09441,-23.67923 10.52242,-36.47734 l 0.0181,-0.31649 0,-0.31649 0.29539,-74.77222 0.40389,-106.87603 0,-0.32553 -0.009,-0.32251 c -0.34361,-12.7951 -3.89429,-25.44553 -10.26019,-36.58284 -6.36892,-11.12526 -15.46866,-20.5867 -26.31059,-27.36253 l -0.28032,-0.17482 -0.28936,-0.16578 -143.70904,-83.70318 -12.65042,-7.3666 -0.65407,-0.37677 -0.26223,-0.15071 -0.26826,-0.14468 c -11.2609,-6.10065 -23.9927,-9.34991 -36.81795,-9.3891 l -0.30443,0 0,-0.006 z"
       inkscape:connector-curvature="0"
       style="fill:#d0d0d0;fill-opacity:1" />
    <path
       id="path3134"
       d="m 130.89884,-108.72668 c -0.009,-0.0151 73.41284,-12.61426 95.14492,-16.67734 11.44476,-2.13704 21.9491,-5.88665 31.26285,-14.14545 0,0.1477 0,0.28635 -0.0181,0.425 -3.1498,34.49704 -26.06946,48.874576 -54.85166,53.187837 0.009,0 -61.97109,9.377046 -98.34595,16.734607 -12.038551,2.441468 -20.357628,7.30632 -26.889309,13.042263 0,-0.150708 0,-0.289359 0.01507,-0.421982 2.911677,-31.962135 25.138078,-46.366795 53.682158,-52.144935 z"
       inkscape:connector-curvature="0"
       style="fill:#d0d0d0;fill-opacity:1" />
    <path
       style="fill:#d0d0d0;fill-opacity:1"
       inkscape:connector-curvature="0"
       d="m 181.97977,-204.24837 c -0.0271,-0.0241 120.50907,-20.71029 156.19369,-27.3776 18.77217,-3.50848 36.03426,-9.68148 51.31604,-23.23012 -0.003,0.22907 -0.003,0.46719 -0.0211,0.69627 -5.17531,56.63302 -42.81009,80.23689 -90.05099,87.32318 0.0181,0.009 -101.60125,16.43922 -161.46243,27.46802 -19.82111,3.65618 -33.42099,11.97827 -44.15441,21.37943 0.0151,-0.22606 0.006,-0.44007 0.0211,-0.6812 4.8106,-52.4343 41.29397,-76.08037 88.1581,-85.57798 z"
       id="path3140" />
  </g>
</svg>
